<?xml version="1.0" encoding="UTF-8"?>
<svg version="1.1" xmlns="http://www.w3.org/2000/svg" width="512" height="512">
<path d="M0 0 C1.01201477 0.00054382 2.02402954 0.00108765 3.06671143 0.00164795 C19.59887291 0.04238923 35.523992 0.95817716 51.75 4.375 C52.78125 4.58930664 53.8125 4.80361328 54.875 5.02441406 C101.10680927 14.94980561 143.72188765 37.60106665 177.75 70.375 C178.7390332 71.32318604 178.7390332 71.32318604 179.74804688 72.29052734 C189.23630305 81.43497479 197.9762044 90.73234009 205.75 101.375 C206.60806152 102.52605017 207.46613451 103.67709177 208.32421875 104.828125 C214.36236829 113.01930614 219.72095521 121.53304105 224.75 130.375 C225.11448242 131.00680176 225.47896484 131.63860352 225.85449219 132.28955078 C240.78473018 158.37464001 250.26385054 187.71085114 254.75 217.375 C254.92660156 218.49745117 255.10320312 219.61990234 255.28515625 220.77636719 C256.9420586 232.38947743 257.14873513 243.90679945 257.125 255.625 C257.12418427 257.14302216 257.12418427 257.14302216 257.12335205 258.69171143 C257.08261077 275.22387291 256.16682284 291.148992 252.75 307.375 C252.42854004 308.921875 252.42854004 308.921875 252.10058594 310.5 C242.17519439 356.73180927 219.52393335 399.34688765 186.75 433.375 C186.11787598 434.03435547 185.48575195 434.69371094 184.83447266 435.37304688 C175.69002521 444.86130305 166.39265991 453.6012044 155.75 461.375 C154.59894983 462.23306152 153.44790823 463.09113451 152.296875 463.94921875 C144.10569386 469.98736829 135.59195895 475.34595521 126.75 480.375 C126.11819824 480.73948242 125.48639648 481.10396484 124.83544922 481.47949219 C98.75035999 496.40973018 69.41414886 505.88885054 39.75 510.375 C38.62754883 510.55160156 37.50509766 510.72820312 36.34863281 510.91015625 C24.73552257 512.5670586 13.21820055 512.77373513 1.5 512.75 C-0.01802216 512.74918427 -0.01802216 512.74918427 -1.56671143 512.74835205 C-18.09887291 512.70761077 -34.023992 511.79182284 -50.25 508.375 C-51.796875 508.05354004 -51.796875 508.05354004 -53.375 507.72558594 C-99.60680927 497.80019439 -142.22188765 475.14893335 -176.25 442.375 C-176.90935547 441.74287598 -177.56871094 441.11075195 -178.24804688 440.45947266 C-187.73630305 431.31502521 -196.4762044 422.01765991 -204.25 411.375 C-205.10806152 410.22394983 -205.96613451 409.07290823 -206.82421875 407.921875 C-212.86236829 399.73069386 -218.22095521 391.21695895 -223.25 382.375 C-223.61448242 381.74319824 -223.97896484 381.11139648 -224.35449219 380.46044922 C-239.28473018 354.37535999 -248.76385054 325.03914886 -253.25 295.375 C-253.51490234 293.69132324 -253.51490234 293.69132324 -253.78515625 291.97363281 C-255.4420586 280.36052257 -255.64873513 268.84320055 -255.625 257.125 C-255.62445618 256.11298523 -255.62391235 255.10097046 -255.62335205 254.05828857 C-255.58261077 237.52612709 -254.66682284 221.601008 -251.25 205.375 C-251.03569336 204.34375 -250.82138672 203.3125 -250.60058594 202.25 C-240.67519439 156.01819073 -218.02393335 113.40311235 -185.25 79.375 C-184.61787598 78.71564453 -183.98575195 78.05628906 -183.33447266 77.37695312 C-174.19002521 67.88869695 -164.89265991 59.1487956 -154.25 51.375 C-153.09894983 50.51693848 -151.94790823 49.65886549 -150.796875 48.80078125 C-142.60569386 42.76263171 -134.09195895 37.40404479 -125.25 32.375 C-124.61819824 32.01051758 -123.98639648 31.64603516 -123.33544922 31.27050781 C-97.25035999 16.34026982 -67.91414886 6.86114946 -38.25 2.375 C-37.12754883 2.19839844 -36.00509766 2.02179687 -34.84863281 1.83984375 C-23.23552257 0.1829414 -11.71820055 -0.02373513 0 0 Z " fill="#209CEE" transform="translate(255.25,-0.375)"/>
<path d="M0 0 C95.37 0 190.74 0 289 0 C289 27.72 289 55.44 289 84 C281.41 84 273.82 84 266 84 C264.01093589 78.69582904 262.27221649 73.67890745 260.9140625 68.23046875 C260.73180618 67.51542679 260.54954987 66.80038483 260.36177063 66.06367493 C259.77867645 63.77265164 259.20172852 61.48013311 258.625 59.1875 C258.0258523 56.8245091 257.42530429 54.46187711 256.82463074 52.09927368 C256.43039768 50.54828011 256.03668534 48.99715409 255.64350891 47.44589233 C253.93044532 40.69522666 252.15646693 33.96134176 250.32080078 27.24291992 C249.55581741 24.39364897 249 21.96696845 249 19 C221.94 19 194.88 19 167 19 C167 113.38 167 207.76 167 305 C169.97 305.33 172.94 305.66 176 306 C178.33215668 306.42327512 180.65852639 306.88020187 182.9765625 307.375 C184.224375 307.63796875 185.4721875 307.9009375 186.7578125 308.171875 C188.03398437 308.44515625 189.31015625 308.7184375 190.625 309 C193.17926024 309.54367788 195.73393598 310.08540806 198.2890625 310.625 C199.41006348 310.86476563 200.53106445 311.10453125 201.68603516 311.3515625 C205.10286296 312.02012701 208.5533702 312.50762431 212 313 C212 318.61 212 324.22 212 330 C167.78 330 123.56 330 78 330 C78 324.72 78 319.44 78 314 C82.31437675 312.76732093 86.55134929 311.5909422 90.90625 310.5625 C92.51693359 310.17964844 92.51693359 310.17964844 94.16015625 309.7890625 C96.38671875 309.26302083 98.61328125 308.73697917 100.83984375 308.2109375 C107.47094279 306.64498113 107.47094279 306.64498113 114.03125 304.8125 C117 304 117 304 121 304 C121 209.95 121 115.9 121 19 C94.27 19.33 67.54 19.66 40 20 C36.27491863 33.99849144 36.27491863 33.99849144 32.55200195 47.99755859 C29.44055075 59.68610787 26.25977514 71.3518981 23 83 C15.41 83 7.82 83 0 83 C0 55.61 0 28.22 0 0 Z " fill="#FDFEFE" transform="translate(112,91)"/>
</svg>
